<?xml version="1.0" encoding="UTF-8"?>
<svg id="OBJECTS" xmlns="http://www.w3.org/2000/svg" viewBox="0 0 500 500">
  <defs>
    <style>
      .cls-1 {
        fill: #111;
      }
    </style>
  </defs>
  <path class="cls-1" d="m267.89,259.77v-56.18h20.75v92.82h-10.26l-49.01-54.43h-1.08v54.43h-20.75v-92.82h10.51l48.77,56.18h1.08Z"/>
  <path class="cls-1" d="m359.77,203.59h21.15v92.82h-21.15v-92.82Z"/>
  <polyline class="cls-1" points="288.63 259.23 289.71 259.23 323.39 296.41 349.93 296.41 307.09 248.72 346.97 203.59 322.31 203.59 289.85 240.64 288.63 240.64"/>
  <g>
    <polygon class="cls-1" points="137.14 280.24 137.14 203.59 196.41 203.59 196.41 219.76 158.29 219.76 158.29 242.52 192.24 242.52 192.24 257.75 158.29 257.75 158.29 280.24 137.14 280.24"/>
    <rect class="cls-1" x="158.29" y="280.24" width="38.12" height="16.17"/>
  </g>
</svg>