<?xml version="1.0" encoding="UTF-8"?>
<svg id="Capa_1" data-name="Capa 1" xmlns="http://www.w3.org/2000/svg" viewBox="0 0 50 50">
  <path d="m43.23,24.08c-.24-9.61-8.16-17.32-17.9-17.32S7.86,14.29,7.44,23.75c0,.26-.02.52-.02.78,0,3.36.94,6.5,2.57,9.18l-3.23,9.53,9.92-3.15c2.57,1.41,5.52,2.21,8.65,2.21,9.89,0,17.91-7.96,17.91-17.78,0-.15,0-.3,0-.45Zm-17.9,15.39c-3.06,0-5.9-.91-8.28-2.47l-5.79,1.84,1.88-5.55c-1.8-2.47-2.87-5.49-2.87-8.76,0-.49.03-.97.08-1.45.74-7.56,7.18-13.49,14.98-13.49s14.4,6.08,15.01,13.78c.03.39.05.77.05,1.17,0,8.24-6.76,14.94-15.06,14.94Z"/>
  <path d="m33.54,28.12c-.44-.22-2.6-1.27-3-1.42-.4-.15-.7-.22-.99.22-.29.44-1.14,1.42-1.39,1.7-.26.29-.51.33-.96.11-.44-.22-1.85-.67-3.53-2.16-1.3-1.15-2.19-2.57-2.44-3.01-.25-.44-.02-.67.19-.89.2-.2.44-.51.66-.76.06-.08.11-.14.16-.21.1-.16.18-.31.28-.52.15-.29.08-.54-.03-.76-.11-.22-.99-2.36-1.36-3.24-.36-.87-.73-.72-.99-.72s-.55-.04-.84-.04-.77.11-1.17.54c-.4.44-1.53,1.49-1.53,3.64,0,.5.09,1.01.23,1.48.44,1.53,1.4,2.8,1.57,3.02.22.28,3.04,4.83,7.5,6.58,4.47,1.74,4.47,1.16,5.27,1.08.8-.07,2.6-1.05,2.96-2.07.37-1.01.37-1.89.26-2.07-.11-.18-.4-.29-.84-.5Z"/>
</svg>