<?xml version="1.0" encoding="UTF-8"?>
<svg id="Capa_1" data-name="Capa 1" xmlns="http://www.w3.org/2000/svg" viewBox="0 0 50 50">
  <path d="m25,8.22c5.46,0,6.11.02,8.27.12,1.99.09,3.08.42,3.8.7.95.37,1.64.81,2.35,1.53.72.72,1.16,1.4,1.53,2.35.28.72.61,1.8.7,3.8.1,2.16.12,2.8.12,8.27s-.02,6.11-.12,8.27c-.09,2-.42,3.08-.7,3.8-.37.96-.81,1.64-1.53,2.35-.72.72-1.4,1.16-2.35,1.53-.72.28-1.81.61-3.8.7-2.16.1-2.8.12-8.27.12s-6.11-.02-8.27-.12c-1.99-.09-3.08-.42-3.8-.7-.96-.37-1.64-.81-2.35-1.53-.72-.72-1.16-1.4-1.53-2.35-.28-.72-.61-1.8-.7-3.8-.1-2.16-.12-2.8-.12-8.27s.02-6.11.12-8.27c.09-2,.42-3.08.7-3.8.37-.95.81-1.64,1.53-2.35.72-.72,1.4-1.16,2.35-1.53.72-.28,1.8-.61,3.8-.7,2.16-.1,2.81-.12,8.27-.12m0-3.69c-5.56,0-6.25.02-8.44.12-2.18.1-3.67.45-4.97.95-1.35.52-2.49,1.22-3.62,2.36-1.14,1.14-1.84,2.28-2.36,3.62-.51,1.3-.85,2.79-.95,4.97-.1,2.18-.12,2.88-.12,8.44s.02,6.25.12,8.44c.1,2.18.45,3.67.95,4.97.52,1.35,1.22,2.49,2.36,3.62s2.28,1.84,3.62,2.36c1.3.51,2.79.85,4.97.95,2.18.1,2.88.12,8.44.12s6.25-.02,8.44-.12c2.18-.1,3.67-.45,4.97-.95,1.35-.52,2.49-1.22,3.62-2.36,1.14-1.14,1.84-2.28,2.36-3.62.51-1.3.85-2.79.95-4.97.1-2.18.12-2.88.12-8.44s-.02-6.25-.12-8.44c-.1-2.18-.45-3.67-.95-4.97-.52-1.35-1.22-2.49-2.36-3.62-1.14-1.14-2.28-1.84-3.62-2.36-1.3-.51-2.79-.85-4.97-.95-2.18-.1-2.88-.12-8.44-.12"/>
  <path d="m25,14.49c-5.8,0-10.51,4.7-10.51,10.51s4.7,10.51,10.51,10.51,10.51-4.7,10.51-10.51-4.7-10.51-10.51-10.51m0,17.33c-3.77,0-6.82-3.05-6.82-6.82s3.05-6.82,6.82-6.82,6.82,3.05,6.82,6.82-3.05,6.82-6.82,6.82"/>
  <path d="m38.38,14.08c0,1.36-1.1,2.46-2.46,2.46s-2.46-1.1-2.46-2.46,1.1-2.46,2.46-2.46,2.46,1.1,2.46,2.46"/>
</svg>