<?xml version="1.0" encoding="UTF-8"?>
<svg id="Capa_1" data-name="Capa 1" xmlns="http://www.w3.org/2000/svg" viewBox="0 0 150 150">
  <defs>
    <style>
      .cls-1 {
        fill: #090909;
      }
    </style>
  </defs>
  <path class="cls-1" d="m141.78,103.17c-1.01,2.69-3,3.62-5.81,3.6-9.39-.08-18.78-.03-28.17-.03-.51,0-1.02,0-1.7,0,.65,3.27,1.27,6.36,1.89,9.46,1.51,7.49,3.03,14.98,4.53,22.47.46,2.29-.26,3.11-2.64,3.12-3.43,0-6.87,0-10.3,0-1.73,0-2.3-.49-2.65-2.21-.61-3.02-1.23-6.04-1.81-9.07-.12-.64-.28-.99-1.04-.99-12.91.02-25.82.01-38.87.01-.53,2.6-1.06,5.18-1.59,7.75-.17.85-.33,1.7-.52,2.55-.31,1.43-.89,1.93-2.32,1.94-3.69.02-7.39.02-11.08,0-1.74-.01-2.53-1.01-2.19-2.73,2.01-10,4.03-20,6.04-30,.14-.71.27-1.42.43-2.3-.6,0-1.07,0-1.53,0-3.13,0-6.26.02-9.39,0-1.5-.01-2.41-.82-2.39-2.01.02-1.15.89-1.86,2.33-1.92.43-.02.87,0,1.3,0,33.82,0,67.64,0,101.46,0q2.09,0,2.09-2.05c0-.78-.06-1.57.01-2.35.1-1.12-.31-1.55-1.47-1.51-2.13.08-4.26.02-6.39.02-9.52,0-19.04,0-28.56,0-.43,0-.88.04-1.3-.04-1.01-.21-1.64-.86-1.64-1.9,0-1.1.63-1.78,1.73-1.95.43-.07.87-.03,1.3-.03,9.35,0,18.69,0,28.04,0h1.76v-1.7c0-21.6,0-43.21,0-64.81,0-3.51-.99-4.52-4.47-4.52-25.65,0-51.29,0-76.94,0-.43,0-.87.02-1.3-.01-1.21-.1-2.02-.91-2.01-1.98.01-1.07.83-1.88,2.06-1.9,2.22-.04,4.43-.02,6.65-.02,2.3,0,4.59,0,7.1,0,0-1.4.09-2.69-.02-3.97-.25-2.82.84-4.78,3.48-5.86h18.26c2.64,1.07,3.73,3.04,3.48,5.86-.11,1.27-.02,2.57-.02,3.97.72,0,1.23,0,1.75,0,12.6,0,25.2,0,37.8,0,.91,0,1.84.02,2.71.23,3.38.85,5.4,3.68,5.4,7.49,0,21.85,0,43.7,0,65.56,0,.51,0,1.02,0,1.74,3.09-.53,5.31.49,6.53,3.31v6.78Zm-51.44,3.56c-.62,0-1.14,0-1.65,0-8.65,0-17.3,0-25.94,0-2.93,0-2.94,0-3.54,2.87-.52,2.5-.99,5-1.51,7.58h34.74c-.7-3.47-1.38-6.87-2.1-10.45Zm-48.57,31.13c2.36,0,4.52-.04,6.69.02.89.03,1.14-.3,1.31-1.15,1.41-7.19,2.89-14.37,4.34-21.55.56-2.75,1.09-5.51,1.67-8.45-2.3,0-4.46.03-6.62-.02-.84-.02-1.19.21-1.36,1.1-1.15,5.96-2.38,11.91-3.58,17.86-.81,3.99-1.61,7.99-2.45,12.19Zm66.59-.05c-2.11-10.46-4.18-20.76-6.24-30.97h-7.76c2.09,10.4,4.16,20.67,6.24,30.97h7.76Zm-52.35-12.28h38.12c-.31-1.51-.6-2.93-.88-4.26-.2-.07-.24-.1-.28-.1-11.73,0-23.46,0-35.19-.03-.72,0-.98.24-1.07.94-.15,1.11-.43,2.21-.69,3.45Zm10.33-107.58h17.33c0-1.69.05-3.3-.04-4.89-.02-.33-.6-.88-.93-.89-5.13-.06-10.26-.06-15.38,0-.33,0-.91.56-.93.88-.1,1.6-.04,3.2-.04,4.9Z"/>
  <path class="cls-1" d="m18.67,92.99h1.87c23.6,0,47.21,0,70.81,0,.48,0,.96-.04,1.43.03,1.1.15,1.75.81,1.76,1.91.01,1.11-.65,1.77-1.72,1.95-.47.08-.95.03-1.43.03-25.78,0-51.55,0-77.33,0q-1.91,0-1.92,1.94c0,.87.05,1.74-.01,2.61-.08,1.06.4,1.36,1.38,1.35,3.43-.03,6.87-.01,10.3,0,.43,0,.87,0,1.3.06.99.16,1.56.78,1.62,1.76.06,1.04-.47,1.74-1.49,2-.37.09-.77.11-1.16.11-3.56,0-7.13.02-10.69,0-3.34-.02-5.14-1.85-5.15-5.18,0-1.17,0-2.35,0-3.52.02-3.19,1.83-5.02,5.01-5.04.43,0,.87,0,1.52,0,0-.58,0-1.12,0-1.66,0-21.73,0-43.47,0-65.2,0-5.2,2.85-8.07,8.04-8.08,5.65,0,11.3,0,16.95,0,.43,0,.88-.02,1.3.06.98.16,1.54.79,1.6,1.77.06.98-.42,1.68-1.38,1.95-.45.12-.94.13-1.42.13-5.69,0-11.39,0-17.08,0-2.96,0-4.09,1.15-4.09,4.11,0,21.82,0,43.64,0,65.46v1.46Z"/>
  <path class="cls-1" d="m62.84,46.59c-.03,8.12-6.6,14.63-14.73,14.58-7.95-.05-14.47-6.6-14.51-14.58-.04-8.04,6.62-14.68,14.7-14.64,8.05.03,14.57,6.59,14.54,14.64Zm-3.92-.09c-.04-5.93-4.81-10.66-10.74-10.64-5.87.02-10.71,4.9-10.66,10.75.05,5.89,4.88,10.66,10.77,10.64,5.9-.02,10.66-4.84,10.63-10.75Z"/>
  <path class="cls-1" d="m76.78,64.5c-2.59-.23-5.19-.42-7.78-.7-1.61-.17-2.42-1.07-2.22-2.29.21-1.25,1.18-1.79,2.8-1.58,6.4.85,12.75.72,18.99-1.06,9.48-2.71,15.07-8.87,16.48-18.7.14-.97.35-1.9,1.46-2.25,1.47-.45,2.69.67,2.47,2.36-1.31,10.04-6.41,17.26-15.88,21.17-4.82,1.99-9.92,2.86-16.32,3.04Z"/>
  <path class="cls-1" d="m87.58,76.29c-.01,4.59-3.74,8.31-8.3,8.29-4.58-.03-8.26-3.75-8.24-8.35.02-4.59,3.72-8.28,8.3-8.27,4.58.01,8.25,3.73,8.24,8.33Zm-3.92-.01c0-2.45-1.91-4.39-4.34-4.4-2.42,0-4.36,1.93-4.37,4.37,0,2.43,1.93,4.41,4.34,4.42,2.4.01,4.37-1.96,4.37-4.39Z"/>
  <path class="cls-1" d="m48.2,73.65c1.08-1.13,1.96-2.1,2.89-3.01.94-.91,2.1-.94,2.9-.15.83.83.82,1.91-.13,2.88-.91.93-1.89,1.79-3.15,2.97,1.05.9,1.97,1.61,2.81,2.42,1.28,1.23,1.4,2.35.46,3.26-.9.87-2.03.69-3.27-.54-.74-.73-1.48-1.47-2.22-2.2-.06-.06-.15-.09-.51-.29-.78.87-1.58,1.84-2.46,2.73-1.05,1.06-2.24,1.12-3.07.23-.82-.87-.74-1.94.31-2.98.89-.88,1.84-1.69,2.97-2.71-1.16-1.07-2.11-1.9-2.99-2.78-1.03-1.04-1.1-2.12-.26-2.98.81-.84,1.98-.77,3,.18.47.45.94.91,1.38,1.38.41.44.8.91,1.36,1.56Z"/>
  <path class="cls-1" d="m110.62,76.28c1.1,1.02,2.04,1.85,2.92,2.74,1.03,1.04,1.09,2.12.25,2.98-.82.84-1.98.79-2.98-.2-.89-.88-1.72-1.83-2.83-3.02-.98,1.09-1.78,2.04-2.65,2.93-1.06,1.07-2.24,1.16-3.08.3-.87-.89-.76-1.96.33-3.08.81-.84,1.64-1.68,2.45-2.51.03-.03.03-.08.13-.34-.82-.79-1.73-1.64-2.6-2.52-1.09-1.11-1.17-2.2-.26-3.07.83-.8,1.99-.72,2.99.28.89.89,1.73,1.82,2.77,2.92,1-1.09,1.86-2.07,2.78-2.99.94-.94,2.08-.99,2.9-.23.88.82.87,1.96-.13,2.98-.88.9-1.82,1.74-2.98,2.84Z"/>
  <path class="cls-1" d="m79.28,44.45c1.08-1.19,1.9-2.14,2.78-3.04,1.02-1.03,2.12-1.11,2.98-.28.9.86.83,2-.26,3.08-.89.88-1.86,1.69-2.94,2.67,1.12,1.04,2.03,1.85,2.89,2.7,1.12,1.12,1.23,2.18.37,3.07-.89.92-2.01.81-3.17-.36-.85-.86-1.63-1.78-2.57-2.82-1.09,1.16-1.95,2.13-2.88,3.04-.98.96-2.05,1-2.89.2-.88-.84-.84-1.95.16-2.98.9-.92,1.86-1.8,2.98-2.88-1.1-1.01-2.09-1.86-3-2.78-.97-.97-1.01-2.04-.21-2.89.83-.87,1.97-.85,2.98.16.91.92,1.74,1.92,2.8,3.1Z"/>
  <path class="cls-1" d="m46.08,47.79c2.22-2.06,4.35-4.03,6.48-6.02,1.07-.99,2.46-.99,3.15.07.61.92.46,1.82-.29,2.6-2.48,2.56-4.96,5.12-7.47,7.65-1.04,1.05-1.99,1.03-3.08.02-1.27-1.19-2.52-2.4-3.74-3.63-.96-.97-1.01-2.04-.21-2.89.78-.82,1.92-.81,2.9.07.87.78,1.69,1.6,2.25,2.14Z"/>
</svg>