<?xml version="1.0" encoding="UTF-8"?>
<svg id="Capa_1" data-name="Capa 1" xmlns="http://www.w3.org/2000/svg" viewBox="0 0 150 150">
  <defs>
    <style>
      .cls-1 {
        fill: #090909;
      }
    </style>
  </defs>
  <path class="cls-1" d="m4.37,25.91c.22-.78.42-1.58.67-2.35,1.82-5.7,6.98-9.71,12.98-9.8,7.31-.12,14.62-.05,21.93-.04,1.65,0,2.53.76,2.5,2.08-.02,1.3-.91,2.04-2.58,2.04-7.08.01-14.16-.03-21.24.02-4.76.03-8.7,3.02-9.78,7.41-.71,2.89-.23,5.86-.34,8.79-.02.51.29.61.71.6.37,0,.74,0,1.1,0,43.12,0,86.24,0,129.36,0,2.03,0,1.79.2,1.76-1.75-.04-2.34.25-4.69-.21-7.01-.91-4.59-4.73-7.85-9.4-8.03-.6-.02-1.19-.02-1.79-.02-26.66,0-53.33,0-79.99,0-.64,0-1.3,0-1.91-.15-1.02-.25-1.56-1.02-1.49-2.04.07-1.07.69-1.78,1.82-1.91.41-.05.83-.03,1.24-.03,26.98,0,53.97,0,80.95,0,7.3,0,12.8,4.1,14.5,10.74.33,1.3.44,2.62.44,3.96,0,26.53,0,53.05,0,79.58,0,.32.03.65-.02.96-.18,1.15-.88,1.86-2.03,1.86-1.16,0-1.87-.68-2.05-1.84-.07-.45-.03-.92-.03-1.38,0-22.39-.01-44.78.03-67.16,0-1.32-.3-1.66-1.64-1.66-43.26.04-86.52.04-129.77,0-1.22,0-1.6.27-1.6,1.56.04,27.08.03,54.15.03,81.23,0,6.34,4.19,10.59,10.51,10.59,37.33.01,74.66.02,111.98,0,6.24,0,10.43-4.27,10.45-10.51,0-1.56-.04-3.13.02-4.69.05-1.19.96-2,2.07-1.96,1.18.05,1.99.73,2,1.87.02,2.93.34,5.88-.42,8.78-1.62,6.16-6.85,10.39-13.19,10.63-.46.02-.92.03-1.38.03-37.05,0-74.1-.01-111.16.01-6.38,0-11.03-2.7-13.8-8.46-.57-1.18-.83-2.5-1.23-3.75,0-32.73,0-65.46,0-98.19Z"/>
  <path class="cls-1" d="m37.46,108.3c-.04-1.01.18-2.09.57-3.12.44-1.14,1.03-2.11.41-3.53-.57-1.3,1.21-2.71,2.61-2.09,1.05.47,1.42-.14,1.92-.68.63-.69-.24-.95-.5-1.31-1.73-2.44-1.47-5.52.77-7.78,4.66-4.7,9.34-9.38,14.05-14.03.9-.89,1.58-1.86,2.03-3.05.76-2.02,1.61-4,2.47-5.98.29-.67.37-1.18-.27-1.69-.87-.71-1.24-1.64-.71-2.69.53-1.03,1.45-1.4,2.56-.99.64.24.7-.2.85-.56,1.31-3.18,2.61-6.37,3.94-9.54.23-.54.2-.88-.2-1.35-.97-1.14-.96-2.21-.09-3.04.89-.86,2.07-.77,3.15.31,5.69,5.68,11.38,11.37,17.06,17.06,6.63,6.63,13.26,13.26,19.89,19.89.36.36.75.7,1.03,1.11.64.91.56,1.85-.21,2.63-.78.78-1.82.96-2.6.2-.84-.82-1.52-.65-2.43-.26-2.87,1.23-5.76,2.4-8.65,3.57-.62.25-.98.47-.71,1.29.31.92-.15,1.71-1,2.19-.87.5-1.78.4-2.39-.33-.82-.99-1.6-.88-2.61-.4-1.53.72-3.1,1.4-4.7,1.94-1.8.61-3.21,1.68-4.49,3.04-.59.62-.74.98-.03,1.62,1.1.98,2.07,2.09,3.14,3.1,1.63,1.54,2.11,3.4,1.14,5.38-.92,1.87-.56,3.14,1.01,4.43,1.49,1.22,2.78,2.68,4.11,4.07,2.37,2.48,2.19,5.7-.43,8.3-2.55,2.53-5.72,2.64-8.19.27-.86-.83-1.72-1.66-2.53-2.54-.9-.97-.92-2.11-.1-2.96.79-.81,2.02-.83,2.96.02.78.71,1.5,1.49,2.26,2.22,1.13,1.1,1.66,1.09,2.77-.03,1.05-1.05,1.04-1.67-.06-2.78-1.68-1.7-3.34-3.42-5.08-5.06-1.67-1.58-2.22-3.44-1.21-5.48.91-1.83.67-3.14-.98-4.32-.92-.66-1.52-2.18-2.52-2.17-.99,0-1.66,1.42-2.49,2.21-1.1,1.05-2.11,2.19-3.24,3.19-.76.67-.64,1.08.04,1.72,1.47,1.38,2.88,2.84,4.3,4.28,1.11,1.13,1.2,2.37.28,3.26-.87.84-2.09.74-3.16-.31-1.48-1.45-2.95-2.9-4.38-4.39-.53-.55-.85-.7-1.55-.14-2.34,1.87-5,1.81-7.47-.03-.31-.23-.6-.73-1.01-.21-.35.45-1.23.65-.78,1.53.46.92.38,1.82-.39,2.52-.76.69-1.69.77-2.53.16-.65-.47-1.03.04-1.48.26-6.59,3.24-14.19-1.47-14.16-8.9Zm64.64-24.27c-10.04-10.02-19.89-19.86-29.74-29.71-.57-.57-.8-.54-1.1.22-1.23,3.07-2.47,6.13-3.79,9.16-.36.83-.22,1.3.39,1.9,3.73,3.68,7.42,7.4,11.13,11.1,3.7,3.71,7.4,7.42,11.12,11.12.36.36.64.92,1.37.61,3.46-1.45,6.94-2.88,10.62-4.4Zm-40.48,2.43c-.04,1.32-.39,2.56-1.31,3.53-1.36,1.44-2.75,2.84-4.19,4.19-1.13,1.06-2.53,1.42-4.07,1.31-1.79-.12-3.01-1.18-4.22-2.36-.36-.35-.61-1.37-1.45-.64-.79.68-1.24,1.5-.59,2.54.14.23.35.43.54.62,4.58,4.58,9.15,9.17,13.74,13.74,1.1,1.1,1.94,1.08,3.07-.04,4.43-4.41,8.83-8.85,13.28-13.23.67-.66.58-1-.04-1.61-5.06-5.01-10.11-10.03-15.09-15.12-.93-.96-1.36-.56-2.01.17-.59.66-1.48,1.12-.24,2.09,1.52,1.19,2.6,2.73,2.58,4.81Zm3.61-17.24c-.72,1.72-1.5,3.62-2.29,5.51-.19.46.15.67.4.92,5.55,5.55,11.09,11.1,16.64,16.65.33.33.61.62,1.17.38,1.8-.78,3.63-1.51,5.35-2.22-7.1-7.09-14.16-14.14-21.27-21.24Zm-7.76,17.19c-.09-.99-1.06-1.43-1.64-2.16-.4-.51-.75-.5-1.21-.02-1.43,1.48-2.9,2.91-4.35,4.37-.18.18-.44.34-.34.68.13.46,2.14,2.09,2.6,2.09.84.01,4.91-3.98,4.94-4.96Zm-7.96,27.05c-2.32-2.32-4.61-4.61-6.9-6.9-.53-.53-.63-.11-.79.33-.68,1.87,0,4.29,1.62,5.75,1.73,1.55,3.98,1.88,6.07.82Zm4.81-3.83c-.38-.45-.53-.66-.72-.85-2.24-2.24-4.5-4.46-6.7-6.73-.65-.67-.94-.28-1.41.14-.58.51-.59.85-.01,1.41,2.24,2.17,4.42,4.41,6.64,6.6.22.22.38.74.85.44.46-.29.88-.65,1.36-1.01Z"/>
  <path class="cls-1" d="m115.54,105.22c4.54,0,9.09,0,13.63,0,.5,0,1.02,0,1.51.1.97.22,1.48.91,1.51,1.88.03.97-.42,1.71-1.38,1.98-.56.16-1.18.16-1.77.16-9.04,0-18.08,0-27.12,0-2.17,0-3.23-.72-3.18-2.14.05-1.37,1.03-1.99,3.18-1.99,4.54,0,9.09,0,13.63,0Z"/>
  <path class="cls-1" d="m120.9,118.46c-2.84,0-5.69.01-8.53,0-1.63-.01-2.57-.77-2.6-2.02-.03-1.25.92-2.09,2.52-2.1,5.82-.02,11.65-.02,17.47,0,1.55,0,2.42.78,2.44,2.01.02,1.29-.89,2.09-2.5,2.1-2.93.02-5.87,0-8.8,0Z"/>
  <path class="cls-1" d="m27.17,54.99c-2.76,0-5.52.01-8.27,0-1.64-.01-2.59-.76-2.63-2-.04-1.31.94-2.12,2.65-2.12,5.52-.01,11.03-.01,16.55,0,1.71,0,2.56.69,2.59,2,.03,1.36-.85,2.11-2.61,2.12-2.76.02-5.52,0-8.27,0Z"/>
  <path class="cls-1" d="m24.49,61.2c1.92,0,3.85-.02,5.77,0,1.42.02,2.26.79,2.28,2.02.02,1.23-.82,2.09-2.21,2.1-3.94.03-7.88.03-11.82,0-1.36-.01-2.26-.93-2.24-2.1.02-1.18.93-2,2.31-2.01,1.97-.02,3.94,0,5.91,0Z"/>
  <path class="cls-1" d="m106.56,73.38c-1.28,0-2.56.03-3.84,0-1.33-.04-2.12-.82-2.13-2.01-.01-1.18.78-2.06,2.08-2.09,2.56-.06,5.13-.06,7.69,0,1.36.03,2.2.96,2.14,2.17-.06,1.15-.9,1.9-2.22,1.93-1.24.03-2.47,0-3.71,0Z"/>
  <path class="cls-1" d="m82.38,48.9c0-1.24-.03-2.47,0-3.71.04-1.3.85-2.15,1.99-2.17,1.14-.02,2.07.8,2.1,2.09.07,2.56.06,5.13,0,7.69-.03,1.38-.93,2.2-2.16,2.14-1.19-.05-1.9-.83-1.94-2.2-.03-1.28,0-2.56,0-3.84Z"/>
  <path class="cls-1" d="m102.85,54.84c.03.7-.3,1.23-.77,1.7-1.71,1.72-3.41,3.45-5.15,5.14-1.08,1.05-2.29,1.08-3.15.16-.83-.87-.78-2.03.22-3.04,1.76-1.8,3.56-3.56,5.34-5.34.66-.66,1.47-.77,2.28-.44.77.31,1.2.96,1.23,1.82Z"/>
  <path class="cls-1" d="m21.95,24.21c.55,0,1.1-.04,1.65,0,1.12.1,1.76.77,1.83,1.87.08,1.1-.47,1.89-1.56,2.11-1.21.25-2.47.22-3.69.02-1.08-.18-1.7-.97-1.65-2.05.05-1.13.71-1.86,1.91-1.96.5-.04,1.01,0,1.51,0,0,0,0,0,0,0Z"/>
  <path class="cls-1" d="m50.07,24.21c.55,0,1.1-.05,1.65,0,1.04.11,1.67.72,1.79,1.76.12,1.1-.36,1.93-1.44,2.18-1.3.3-2.65.29-3.95,0-1.02-.22-1.55-1.01-1.49-2.03.06-1.08.68-1.79,1.8-1.91.54-.06,1.1-.01,1.65-.01Z"/>
  <path class="cls-1" d="m36.09,24.21c.5,0,1.01-.04,1.51,0,1.11.1,1.77.73,1.86,1.84.09,1.11-.43,1.91-1.52,2.13-1.26.26-2.56.26-3.82,0-1.08-.22-1.65-1.04-1.55-2.12.09-1.06.74-1.76,1.87-1.86.55-.04,1.1,0,1.65,0Z"/>
</svg>